<svg width="56" height="52" viewBox="0 0 56 52" fill="none" xmlns="http://www.w3.org/2000/svg">
<path d="M53.3749 47.0254H48.4812V29.1723C48.4812 26.2723 46.1249 24.0066 43.3155 24.0066H38.0593C35.1593 24.0066 32.8937 26.3629 32.8937 29.1723V47.0254H27.4562V15.4879C27.4562 12.5879 25.0999 10.3223 22.2905 10.3223H17.0343C14.1343 10.3223 11.8687 12.6785 11.8687 15.4879V47.0254H4.70928V2.89102C4.70928 1.80352 3.80303 0.806641 2.6249 0.806641C1.44678 0.806641 0.540527 1.71289 0.540527 2.89102V47.2066C0.540527 49.291 2.2624 51.1035 4.4374 51.1035H53.3749C54.4624 51.1035 55.4593 50.1973 55.4593 49.0191C55.4593 47.841 54.4624 47.0254 53.3749 47.0254ZM15.9468 47.0254V15.4879C15.9468 14.8535 16.4905 14.4004 17.0343 14.4004H22.2905C22.9249 14.4004 23.378 14.9441 23.378 15.4879V47.0254H15.9468ZM36.9718 47.0254V29.1723C36.9718 28.5379 37.5155 28.0848 38.0593 28.0848H43.3155C43.9499 28.0848 44.403 28.6285 44.403 29.1723V47.0254H36.9718Z" fill="#1F37FF"/>
</svg>
