<svg width="436" height="456" viewBox="0 0 436 456" fill="none" xmlns="http://www.w3.org/2000/svg">
<g filter="url(#filter0_dddddd_117_125)">
<path d="M80.3438 57.1777C80.3438 25.6975 105.864 0.177734 137.344 0.177734H298.344C329.824 0.177734 355.344 25.6975 355.344 57.1777V218.178C355.344 249.658 329.824 275.178 298.344 275.178H137.344C105.864 275.178 80.3438 249.658 80.3438 218.178V57.1777Z" fill="#EBE9E9"/>
</g>
<g filter="url(#filter1_i_117_125)">
<path d="M293.062 137.571C293.062 179.169 259.336 212.896 217.737 212.896C176.139 212.896 142.412 179.169 142.412 137.571C142.412 95.9724 176.139 62.2456 217.737 62.2456C259.336 62.2456 293.062 95.9724 293.062 137.571Z" fill="#5B7DF5"/>
</g>
<g filter="url(#filter2_i_117_125)">
<path d="M170.858 136.505C197.184 124.924 231.25 110.804 235.954 108.85C248.289 103.735 252.074 104.714 250.187 116.043C248.831 124.186 244.922 151.141 241.803 167.919C239.954 177.87 235.803 179.049 229.28 174.744C226.143 172.673 210.306 162.199 206.867 159.739C203.73 157.498 199.403 154.802 204.83 149.491C206.762 147.601 219.42 135.511 229.284 126.103C230.576 124.867 228.953 122.837 227.461 123.828C214.166 132.645 195.734 144.881 193.388 146.474C189.844 148.881 186.439 149.985 180.33 148.23C175.713 146.904 171.205 145.322 169.45 144.719C162.689 142.399 164.294 139.394 170.858 136.505Z" fill="#EBE9E9"/>
</g>
<defs>
<filter id="filter0_dddddd_117_125" x="0.34375" y="0.177734" width="435" height="455" filterUnits="userSpaceOnUse" color-interpolation-filters="sRGB">
<feFlood flood-opacity="0" result="BackgroundImageFix"/>
<feColorMatrix in="SourceAlpha" type="matrix" values="0 0 0 0 0 0 0 0 0 0 0 0 0 0 0 0 0 0 127 0" result="hardAlpha"/>
<feOffset dy="2.76726"/>
<feGaussianBlur stdDeviation="1.1069"/>
<feColorMatrix type="matrix" values="0 0 0 0 0 0 0 0 0 0 0 0 0 0 0 0 0 0 0.0196802 0"/>
<feBlend mode="normal" in2="BackgroundImageFix" result="effect1_dropShadow_117_125"/>
<feColorMatrix in="SourceAlpha" type="matrix" values="0 0 0 0 0 0 0 0 0 0 0 0 0 0 0 0 0 0 127 0" result="hardAlpha"/>
<feOffset dy="6.6501"/>
<feGaussianBlur stdDeviation="2.66004"/>
<feColorMatrix type="matrix" values="0 0 0 0 0 0 0 0 0 0 0 0 0 0 0 0 0 0 0.0282725 0"/>
<feBlend mode="normal" in2="effect1_dropShadow_117_125" result="effect2_dropShadow_117_125"/>
<feColorMatrix in="SourceAlpha" type="matrix" values="0 0 0 0 0 0 0 0 0 0 0 0 0 0 0 0 0 0 127 0" result="hardAlpha"/>
<feOffset dy="12.5216"/>
<feGaussianBlur stdDeviation="5.00862"/>
<feColorMatrix type="matrix" values="0 0 0 0 0 0 0 0 0 0 0 0 0 0 0 0 0 0 0.035 0"/>
<feBlend mode="normal" in2="effect2_dropShadow_117_125" result="effect3_dropShadow_117_125"/>
<feColorMatrix in="SourceAlpha" type="matrix" values="0 0 0 0 0 0 0 0 0 0 0 0 0 0 0 0 0 0 127 0" result="hardAlpha"/>
<feOffset dy="22.3363"/>
<feGaussianBlur stdDeviation="8.93452"/>
<feColorMatrix type="matrix" values="0 0 0 0 0 0 0 0 0 0 0 0 0 0 0 0 0 0 0.0417275 0"/>
<feBlend mode="normal" in2="effect3_dropShadow_117_125" result="effect4_dropShadow_117_125"/>
<feColorMatrix in="SourceAlpha" type="matrix" values="0 0 0 0 0 0 0 0 0 0 0 0 0 0 0 0 0 0 127 0" result="hardAlpha"/>
<feOffset dy="41.7776"/>
<feGaussianBlur stdDeviation="16.711"/>
<feColorMatrix type="matrix" values="0 0 0 0 0 0 0 0 0 0 0 0 0 0 0 0 0 0 0.0503198 0"/>
<feBlend mode="normal" in2="effect4_dropShadow_117_125" result="effect5_dropShadow_117_125"/>
<feColorMatrix in="SourceAlpha" type="matrix" values="0 0 0 0 0 0 0 0 0 0 0 0 0 0 0 0 0 0 127 0" result="hardAlpha"/>
<feOffset dy="100"/>
<feGaussianBlur stdDeviation="40"/>
<feColorMatrix type="matrix" values="0 0 0 0 0 0 0 0 0 0 0 0 0 0 0 0 0 0 0.07 0"/>
<feBlend mode="normal" in2="effect5_dropShadow_117_125" result="effect6_dropShadow_117_125"/>
<feBlend mode="normal" in="SourceGraphic" in2="effect6_dropShadow_117_125" result="shape"/>
</filter>
<filter id="filter1_i_117_125" x="142.412" y="62.2456" width="150.65" height="154.65" filterUnits="userSpaceOnUse" color-interpolation-filters="sRGB">
<feFlood flood-opacity="0" result="BackgroundImageFix"/>
<feBlend mode="normal" in="SourceGraphic" in2="BackgroundImageFix" result="shape"/>
<feColorMatrix in="SourceAlpha" type="matrix" values="0 0 0 0 0 0 0 0 0 0 0 0 0 0 0 0 0 0 127 0" result="hardAlpha"/>
<feOffset dy="4"/>
<feGaussianBlur stdDeviation="7.5"/>
<feComposite in2="hardAlpha" operator="arithmetic" k2="-1" k3="1"/>
<feColorMatrix type="matrix" values="0 0 0 0 0 0 0 0 0 0 0 0 0 0 0 0 0 0 0.2 0"/>
<feBlend mode="normal" in2="shape" result="effect1_innerShadow_117_125"/>
</filter>
<filter id="filter2_i_117_125" x="165.094" y="105.891" width="85.5518" height="75.2178" filterUnits="userSpaceOnUse" color-interpolation-filters="sRGB">
<feFlood flood-opacity="0" result="BackgroundImageFix"/>
<feBlend mode="normal" in="SourceGraphic" in2="BackgroundImageFix" result="shape"/>
<feColorMatrix in="SourceAlpha" type="matrix" values="0 0 0 0 0 0 0 0 0 0 0 0 0 0 0 0 0 0 127 0" result="hardAlpha"/>
<feOffset dy="4"/>
<feGaussianBlur stdDeviation="4"/>
<feComposite in2="hardAlpha" operator="arithmetic" k2="-1" k3="1"/>
<feColorMatrix type="matrix" values="0 0 0 0 0 0 0 0 0 0 0 0 0 0 0 0 0 0 0.2 0"/>
<feBlend mode="normal" in2="shape" result="effect1_innerShadow_117_125"/>
</filter>
</defs>
</svg>
